<mxfile host="app.diagrams.net" agent="Mozilla/5.0 (Windows NT 10.0; Win64; x64; rv:133.0) Gecko/20100101 Firefox/133.0" version="28.2.5">
  <diagram name="Página-1" id="g66wc-3yDGLsgSv-LL70">
    <mxGraphModel dx="815" dy="445" grid="1" gridSize="10" guides="1" tooltips="1" connect="1" arrows="1" fold="1" page="1" pageScale="1" pageWidth="827" pageHeight="1169" math="0" shadow="0">
      <root>
        <mxCell id="0" />
        <mxCell id="1" parent="0" />
        <mxCell id="9iA9CJVX4aUKCYg15hFe-1" value="Música" style="whiteSpace=wrap;html=1;align=center;" vertex="1" parent="1">
          <mxGeometry x="356" y="400" width="116" height="40" as="geometry" />
        </mxCell>
        <mxCell id="9iA9CJVX4aUKCYg15hFe-2" value="Álbum" style="whiteSpace=wrap;html=1;align=center;" vertex="1" parent="1">
          <mxGeometry x="356" y="220" width="116" height="40" as="geometry" />
        </mxCell>
        <mxCell id="9iA9CJVX4aUKCYg15hFe-3" value="Artista" style="whiteSpace=wrap;html=1;align=center;" vertex="1" parent="1">
          <mxGeometry x="356" y="130" width="116" height="40" as="geometry" />
        </mxCell>
        <mxCell id="9iA9CJVX4aUKCYg15hFe-4" value="Review" style="whiteSpace=wrap;html=1;align=center;" vertex="1" parent="1">
          <mxGeometry x="520" y="220" width="116" height="40" as="geometry" />
        </mxCell>
        <mxCell id="9iA9CJVX4aUKCYg15hFe-7" value="Playlist" style="whiteSpace=wrap;html=1;align=center;" vertex="1" parent="1">
          <mxGeometry x="520" y="400" width="116" height="40" as="geometry" />
        </mxCell>
        <mxCell id="9iA9CJVX4aUKCYg15hFe-8" value="Usuário" style="whiteSpace=wrap;html=1;align=center;" vertex="1" parent="1">
          <mxGeometry x="520" y="310" width="116" height="40" as="geometry" />
        </mxCell>
        <mxCell id="9iA9CJVX4aUKCYg15hFe-21" value="" style="fontSize=12;html=1;endArrow=ERmany;rounded=0;" edge="1" parent="1">
          <mxGeometry width="100" height="100" relative="1" as="geometry">
            <mxPoint x="580" y="310" as="sourcePoint" />
            <mxPoint x="580" y="260" as="targetPoint" />
          </mxGeometry>
        </mxCell>
        <mxCell id="9iA9CJVX4aUKCYg15hFe-22" value="" style="fontSize=12;html=1;endArrow=none;rounded=0;startArrow=ERmany;startFill=0;endFill=0;" edge="1" parent="1">
          <mxGeometry width="100" height="100" relative="1" as="geometry">
            <mxPoint x="577.8" y="400" as="sourcePoint" />
            <mxPoint x="577.8" y="350" as="targetPoint" />
          </mxGeometry>
        </mxCell>
        <mxCell id="9iA9CJVX4aUKCYg15hFe-23" value="" style="fontSize=12;html=1;endArrow=none;rounded=0;startArrow=ERmany;startFill=0;endFill=0;exitX=0.5;exitY=0;exitDx=0;exitDy=0;" edge="1" parent="1" source="9iA9CJVX4aUKCYg15hFe-1">
          <mxGeometry width="100" height="100" relative="1" as="geometry">
            <mxPoint x="414" y="310" as="sourcePoint" />
            <mxPoint x="414" y="260" as="targetPoint" />
          </mxGeometry>
        </mxCell>
        <mxCell id="9iA9CJVX4aUKCYg15hFe-24" value="" style="fontSize=12;html=1;endArrow=none;rounded=0;startArrow=ERmany;startFill=0;endFill=0;exitX=0.5;exitY=0;exitDx=0;exitDy=0;entryX=0.491;entryY=1.004;entryDx=0;entryDy=0;entryPerimeter=0;" edge="1" parent="1" target="9iA9CJVX4aUKCYg15hFe-3">
          <mxGeometry width="100" height="100" relative="1" as="geometry">
            <mxPoint x="413" y="220" as="sourcePoint" />
            <mxPoint x="413" y="80" as="targetPoint" />
          </mxGeometry>
        </mxCell>
        <mxCell id="9iA9CJVX4aUKCYg15hFe-25" value="" style="fontSize=12;html=1;endArrow=none;rounded=0;startArrow=ERmany;startFill=0;endFill=0;exitX=0;exitY=0.5;exitDx=0;exitDy=0;" edge="1" parent="1" source="9iA9CJVX4aUKCYg15hFe-4">
          <mxGeometry width="100" height="100" relative="1" as="geometry">
            <mxPoint x="510" y="239.82999999999998" as="sourcePoint" />
            <mxPoint x="472" y="239.82999999999998" as="targetPoint" />
          </mxGeometry>
        </mxCell>
        <mxCell id="9iA9CJVX4aUKCYg15hFe-26" value="" style="fontSize=12;html=1;endArrow=ERmany;rounded=0;startArrow=ERmany;startFill=0;endFill=0;exitX=0;exitY=0.5;exitDx=0;exitDy=0;" edge="1" parent="1">
          <mxGeometry width="100" height="100" relative="1" as="geometry">
            <mxPoint x="520" y="420" as="sourcePoint" />
            <mxPoint x="472" y="419.83" as="targetPoint" />
          </mxGeometry>
        </mxCell>
      </root>
    </mxGraphModel>
  </diagram>
</mxfile>
